<svg height="512pt" preserveAspectRatio="xMidYMid meet" viewBox="0 0 512 512" width="512pt" xmlns="http://www.w3.org/2000/svg"><g transform="matrix(.003922 0 0 -.003922 0 512)"><path d="m48719 88119c-184-221-251-6120-214-18657 30-10084 58-20537 63-23228 6-2914 113-4996 265-5145 576-565 4291-637 4960-95l622 503 14 23133c9 15136-75 23202-241 23333-482 376-5175 510-5469 156z"/><path d="m81854 88225c-318-72-935-664-1372-1314-437-651-1697-2198-2800-3438-1103-1241-2676-3231-3496-4423s-1937-2626-2483-3187-1153-1325-1349-1696c-196-372-1502-1961-2902-3533l-2546-2857-1145 157c-1679 230-1769 414-1497 3084 326 3191 319 3804-67 6078-309 1817-298 2105 123 3187 695 1784 767 2676 289 3600-338 652-369 979-152 1601 790 2266 210 2786-3003 2691-3336-99-3138 492-3134-9327 4-11705-19-24134-60-31271-28-4981 37-6428 303-6693 461-461 5282-478 5578-20 371 573 445 5054 187 11284-332 7998 617 11215 2384 8084 293-520 954-1346 1468-1837 515-491 1560-1717 2323-2725 764-1008 2007-2399 2764-3091 757-691 1846-1989 2421-2884s2071-2718 3325-4050 2791-2996 3416-3697l1136-1275 4843-84c6152-106 6665 314 5663 4630-314 1354-148 1301-4251 1355l-3696 48-1066 1233c-587 678-1718 1921-2513 2763-2310 2445-7862 9149-7866 9498-22 1909 8228-2714 9605-5382 380-738 3188-4125 3779-4559 772-568 5133 27 5405 738 210 547-695 2548-1500 3315-418 399-915 1069-1105 1490-492 1091-3763 4366-5858 5865-2577 1844-2516 2142 890 4374 771 505 1886 1334 2477 1842s1462 1234 1935 1613c2136 1714 3998 5728 3999 8618 2 3914-314 9848-536 10073-260 262-8839 368-9916 122zm4515-6675c1105-1071 1017-2067-380-4285-309-491-563-1031-563-1201-4-1283-4611-5661-7315-6952-5133-2451-5963-1505-2271 2587 2608 2890 3720 4292 3720 4691 0 540 5051 5975 5552 5975 229 0 795-367 1257-815z"/></g></svg>